<svg width="18" height="19" viewBox="0 0 18 19" fill="none" xmlns="http://www.w3.org/2000/svg">
<path d="M16.8996 0.690979L17.8086 1.60062L8.17218 11.237L7.26318 10.3281L16.8996 0.690979Z" fill="#2D9CDB"/>
<path d="M18.0001 6.92857H16.7144V1.78571H11.5715V0.5H18.0001V6.92857Z" fill="#2D9CDB"/>
<path d="M14.7857 18.5H1.92857C0.835714 18.5 0 17.6643 0 16.5714V3.71428C0 2.62142 0.835714 1.78571 1.92857 1.78571H9V3.07142H1.92857C1.54286 3.07142 1.28571 3.32856 1.28571 3.71428V16.5714C1.28571 16.9571 1.54286 17.2143 1.92857 17.2143H14.7857C15.1714 17.2143 15.4286 16.9571 15.4286 16.5714V9.49999H16.7143V16.5714C16.7143 17.6643 15.8786 18.5 14.7857 18.5Z" fill="#2D9CDB"/>
</svg>
