<svg width="83" height="116" viewBox="0 0 83 116" fill="none" xmlns="http://www.w3.org/2000/svg">
<path fill-rule="evenodd" clip-rule="evenodd" d="M41.6327 5L22.2256 38.3446C22.0316 38.6779 22.272 39.0961 22.6577 39.0961H34.9173L34.9173 71.6951C24.4046 82.1284 13.8757 92.5694 3.35851 103.003C3.16109 103.199 3.16141 103.518 3.35922 103.713L12.1929 112.442C12.3879 112.635 12.7018 112.635 12.8964 112.441L41.6327 83.9338L70.369 112.441C70.5637 112.635 70.8776 112.635 71.0726 112.442L79.9063 103.713C80.1041 103.518 80.1044 103.199 79.907 103.003L48.3482 71.6951L48.3482 39.0961H60.6078C60.9934 39.0961 61.2339 38.6779 61.0399 38.3446L41.6327 5Z" stroke="#74CDD8" stroke-width="5"/>
</svg>
