<svg width="151" height="135" viewBox="0 0 151 135" fill="none" xmlns="http://www.w3.org/2000/svg">
<path fill-rule="evenodd" clip-rule="evenodd" d="M148.339 119.475L125.242 96.4152C122.911 94.0879 119.118 94.0879 116.787 96.4152L115.521 97.6795L111.333 93.5003C121.808 81.5806 121.384 63.3793 109.996 52.0075C104.248 46.269 96.6052 43.1082 88.4747 43.1082C86.1624 43.1082 83.8993 43.3915 81.6996 43.8902V0H59.7797V63.4893C56.8037 72.0492 57.7558 81.6602 62.6572 89.5271H55.7953V25.8621H33.8754V89.5271H29.891V53.7144H7.97109V89.5247H0V93.5026H7.97109H29.891H33.8754H55.7953H65.6261C65.7101 93.5982 65.7936 93.6939 65.877 93.7896C66.2268 94.1909 66.5756 94.5911 66.9581 94.9729C72.706 100.711 80.3488 103.872 88.477 103.872C95.9369 103.872 102.968 101.184 108.518 96.3122L112.702 100.489L111.436 101.753C109.105 104.081 109.105 107.867 111.436 110.194L134.533 133.253C135.699 134.417 137.23 135 138.759 135C140.29 135 141.819 134.417 142.985 133.253L148.334 127.913C150.672 125.588 150.672 121.8 148.339 119.475ZM71.9673 57.0061C81.0735 47.9148 95.8853 47.9148 104.991 57.0061C114.095 66.0951 114.095 80.8851 104.991 89.9764C100.58 94.3804 94.7174 96.806 88.4794 96.806C82.2414 96.806 76.3785 94.3804 71.9673 89.9764C62.8636 80.8851 62.8636 66.0951 71.9673 57.0061ZM74.784 87.1624C82.3354 94.7015 94.6215 94.7015 102.173 87.1624C109.724 79.6258 109.724 67.3573 102.17 59.8206C98.3971 56.0511 93.4372 54.1663 88.4772 54.1663C83.5197 54.1663 78.5597 56.0511 74.784 59.8206C67.2327 67.3573 67.2327 79.6234 74.784 87.1624ZM11.9557 89.527H25.9046V57.6945H11.9557V89.527ZM51.8111 89.5269H37.8623V29.8422H51.8111V89.5269ZM77.7176 3.97796H63.7688V55.8146C64.7233 54.4871 65.7645 53.2017 66.9605 52.0076C70.0631 48.9077 73.7309 46.5898 77.7176 45.0867V3.97796ZM107.182 92.1632C102.187 97.1502 95.5455 99.8966 88.4797 99.8966C81.4138 99.8966 74.7747 97.1502 69.7773 92.1632C69.0456 91.4328 68.3819 90.6625 67.7534 89.8734V89.5269H67.4978C59.5572 79.183 60.3006 64.2806 69.7773 54.8193C74.7724 49.8323 81.4138 47.086 88.4797 47.086C95.5455 47.086 102.187 49.8323 107.182 54.8193C117.491 65.1141 117.491 81.8685 107.182 92.1632ZM114.257 104.57C113.481 105.347 113.481 106.607 114.257 107.384L116.239 109.363L124.407 101.208L122.425 99.2296C122.036 98.841 121.525 98.6466 121.016 98.6466C120.505 98.6466 119.996 98.841 119.606 99.2296L114.257 104.57ZM127.226 104.02L140.694 117.466L132.526 125.621L119.058 112.174L127.226 104.02ZM140.173 130.441L145.522 125.101C146.299 124.326 146.299 123.064 145.522 122.287L143.51 120.278L135.342 128.433L137.354 130.441C138.133 131.216 139.397 131.216 140.173 130.441Z" fill="#74CDD8"/>
</svg>
