<svg width="150" height="109" viewBox="0 0 150 109" fill="none" xmlns="http://www.w3.org/2000/svg">
<path fill-rule="evenodd" clip-rule="evenodd" d="M143.471 5.80745e-06H7.27724L7.27724 0C5.51139 0 3.90813 0.718501 2.74774 1.87622C1.58735 3.03394 0.867188 4.63351 0.867188 6.39541V80.7125C0.867188 82.4743 1.5878 84.074 2.74785 85.2314C3.90812 86.3892 5.51173 87.1079 7.27724 87.1079H72.2698V102.021H63.0329V108.216H87.7154V102.021H78.4789V87.1079H143.471C145.237 87.1079 146.84 86.3888 148 85.2312C149.161 84.0736 149.881 82.4738 149.881 80.7125V6.39541C149.881 4.63408 149.161 3.03429 148 1.87634C146.84 0.718963 145.237 5.80745e-06 143.471 5.80745e-06ZM7.27724 6.19479H143.471C143.523 6.19479 143.573 6.21845 143.61 6.25618C143.649 6.29413 143.672 6.34375 143.672 6.39542V80.7125C143.672 80.764 143.649 80.8134 143.61 80.8514C143.572 80.8895 143.523 80.9132 143.471 80.9132H7.27724C7.22556 80.9132 7.17583 80.8895 7.13779 80.8515C7.09998 80.8138 7.07626 80.7642 7.07626 80.7125V6.39542C7.07626 6.3434 7.09986 6.29379 7.13767 6.25606C7.17549 6.21834 7.22522 6.19479 7.27724 6.19479Z" fill="#74CDD8"/>
<path fill-rule="evenodd" clip-rule="evenodd" d="M98 15C100.485 15 102.735 15.9515 104.364 17.4898C105.993 19.0281 107 21.1531 107 23.5C107 25.8469 105.993 27.9719 104.364 29.5102C102.735 31.0485 100.485 32 98 32C97.6266 32 97.2586 31.9785 96.8972 31.9368L87.4131 47.6791C88.4139 49.0491 89 50.71 89 52.5C89 54.8469 87.9925 56.9719 86.3638 58.5102C84.7349 60.0485 82.4849 61 80 61C77.5151 61 75.2651 60.0485 73.6363 58.5102C72.0075 56.9719 71 54.8469 71 52.5C71 52.4402 71.0007 52.3805 71.002 52.321L58.7099 49.1645C58.5979 49.2828 58.4825 49.3981 58.3637 49.5102C56.7349 51.0485 54.4849 52 52 52C49.5151 52 47.2651 51.0485 45.6362 49.5102C44.0075 47.9719 43 45.8467 43 43.5C43 41.1531 44.0075 39.0281 45.6362 37.4898C47.265 35.9515 49.5151 35 52 35C54.4849 35 56.7349 35.9515 58.3637 37.4898C59.9925 39.0281 61 41.1531 61 43.5C61 43.8929 60.9718 44.2795 60.9171 44.6582L72.6019 47.6586C72.9096 47.2401 73.256 46.849 73.6363 46.4898C75.265 44.9515 77.515 44 80 44C81.1922 44 82.3303 44.219 83.3718 44.6168L92.1851 29.9875C91.9952 29.8355 91.8121 29.6763 91.6363 29.5102C90.0075 27.972 89 25.847 89 23.5C89 21.1531 90.0075 19.0281 91.6363 17.4898C93.2651 15.9515 95.5151 15 98 15ZM100.728 20.9239C100.03 20.2649 99.0654 19.8573 98 19.8573C96.9346 19.8573 95.9702 20.265 95.2725 20.9239C94.5746 21.583 94.143 22.4938 94.143 23.5C94.143 24.5061 94.5747 25.417 95.2725 26.076C95.9703 26.735 96.9347 27.1428 98 27.1428C99.0654 27.1428 100.03 26.7351 100.728 26.076C101.425 25.4171 101.857 24.5062 101.857 23.5C101.857 22.4938 101.425 21.583 100.728 20.9239ZM52 39.8573C53.0654 39.8573 54.0298 40.265 54.7275 40.9239C55.4254 41.583 55.857 42.4938 55.857 43.5C55.857 44.5062 55.4254 45.417 54.7275 46.0761C54.0298 46.735 53.0654 47.1428 52 47.1428C50.9346 47.1428 49.9702 46.7351 49.2724 46.0761C48.5746 45.4171 48.143 44.5062 48.143 43.5C48.143 42.4938 48.5746 41.5829 49.2724 40.9239C49.9702 40.2649 50.9346 39.8573 52 39.8573ZM80 48.8573C81.0654 48.8573 82.0298 49.2649 82.7276 49.924C83.4253 50.583 83.857 51.4938 83.857 52.5C83.857 53.5062 83.4254 54.4171 82.7276 55.0761C82.0298 55.7351 81.0654 56.1428 80 56.1428C78.9346 56.1428 77.9702 55.735 77.2725 55.0761C76.5746 54.417 76.143 53.5062 76.143 52.5C76.143 51.4939 76.5747 50.583 77.2725 49.924C77.9703 49.265 78.9347 48.8573 80 48.8573Z" fill="#74CDD8"/>
</svg>
