<svg width="48" height="48" viewBox="0 0 48 48" fill="none" xmlns="http://www.w3.org/2000/svg">
<path fill-rule="evenodd" clip-rule="evenodd" d="M20.0325 6.36858C22.9554 2.94733 27.151 1 31.6667 1C40.1211 1 47 7.87892 47 16.3333C47 24.7878 40.1211 31.6667 31.6667 31.6667C30.417 31.6667 29.1807 31.5152 27.9752 31.2182C26.6968 33.8114 24.046 35.5 21.125 35.5C17.9683 35.5 15.2102 33.6044 14.0487 30.7083H13.9375C6.80367 30.7083 1 24.9047 1 17.7708C1 10.637 6.80367 4.83333 13.9375 4.83333C16.065 4.83333 18.1542 5.36233 20.0325 6.36858ZM14.4167 35.5C12.2987 35.5 10.5833 37.2154 10.5833 39.3333C10.5833 41.4512 12.2987 43.1667 14.4167 43.1667C16.5346 43.1667 18.25 41.4512 18.25 39.3333C18.25 37.2154 16.5346 35.5 14.4167 35.5ZM5.79167 41.25C4.20467 41.25 2.91667 42.538 2.91667 44.125C2.91667 45.712 4.20467 47 5.79167 47C7.37867 47 8.66667 45.712 8.66667 44.125C8.66667 42.538 7.37867 41.25 5.79167 41.25Z" fill="#74CDD8"/>
<path d="M20.0325 6.36858L19.7964 6.80932L20.1512 6.9994L20.4127 6.69336L20.0325 6.36858ZM27.9752 31.2182L28.0948 30.7327L27.7045 30.6365L27.5267 30.9971L27.9752 31.2182ZM14.0487 30.7083L14.5127 30.5222L14.3869 30.2083H14.0487V30.7083ZM31.6667 0.5C27.004 0.5 22.6698 2.51194 19.6523 6.0438L20.4127 6.69336C23.2411 3.38273 27.298 1.5 31.6667 1.5V0.5ZM47.5 16.3333C47.5 7.60277 40.3972 0.5 31.6667 0.5V1.5C39.8449 1.5 46.5 8.15506 46.5 16.3333H47.5ZM31.6667 32.1667C40.3972 32.1667 47.5 25.0639 47.5 16.3333H46.5C46.5 24.5116 39.8449 31.1667 31.6667 31.1667V32.1667ZM27.8555 31.7036C29.1 32.0103 30.3765 32.1667 31.6667 32.1667V31.1667C30.4575 31.1667 29.2615 31.0202 28.0948 30.7327L27.8555 31.7036ZM21.125 36C24.24 36 27.0626 34.2 28.4236 31.4393L27.5267 30.9971C26.3309 33.4228 23.852 35 21.125 35V36ZM13.5846 30.8945C14.8214 33.9783 17.762 36 21.125 36V35C18.1745 35 15.5989 33.2305 14.5127 30.5222L13.5846 30.8945ZM13.9375 31.2083H14.0487V30.2083H13.9375V31.2083ZM0.5 17.7708C0.5 25.1808 6.52752 31.2083 13.9375 31.2083V30.2083C7.07981 30.2083 1.5 24.6285 1.5 17.7708H0.5ZM13.9375 4.33333C6.52752 4.33333 0.5 10.3609 0.5 17.7708H1.5C1.5 10.9131 7.07981 5.33333 13.9375 5.33333V4.33333ZM20.2686 5.92784C18.3184 4.88307 16.1482 4.33333 13.9375 4.33333V5.33333C15.9818 5.33333 17.99 5.8416 19.7964 6.80932L20.2686 5.92784ZM11.0833 39.3333C11.0833 37.4916 12.5749 36 14.4167 36V35C12.0226 35 10.0833 36.9393 10.0833 39.3333H11.0833ZM14.4167 42.6667C12.5749 42.6667 11.0833 41.1751 11.0833 39.3333H10.0833C10.0833 41.7274 12.0226 43.6667 14.4167 43.6667V42.6667ZM17.75 39.3333C17.75 41.1751 16.2584 42.6667 14.4167 42.6667V43.6667C16.8107 43.6667 18.75 41.7274 18.75 39.3333H17.75ZM14.4167 36C16.2584 36 17.75 37.4916 17.75 39.3333H18.75C18.75 36.9393 16.8107 35 14.4167 35V36ZM3.41667 44.125C3.41667 42.8141 4.48081 41.75 5.79167 41.75V40.75C3.92852 40.75 2.41667 42.2619 2.41667 44.125H3.41667ZM5.79167 46.5C4.48081 46.5 3.41667 45.4359 3.41667 44.125H2.41667C2.41667 45.9881 3.92852 47.5 5.79167 47.5V46.5ZM8.16667 44.125C8.16667 45.4359 7.10252 46.5 5.79167 46.5V47.5C7.65481 47.5 9.16667 45.9881 9.16667 44.125H8.16667ZM5.79167 41.75C7.10252 41.75 8.16667 42.8141 8.16667 44.125H9.16667C9.16667 42.2619 7.65481 40.75 5.79167 40.75V41.75Z" fill="#74CDD8"/>
</svg>
