<?xml version="1.0" encoding="UTF-8"?>
<svg width="169px" height="182px" viewBox="0 0 169 182" version="1.1" xmlns="http://www.w3.org/2000/svg" xmlns:xlink="http://www.w3.org/1999/xlink">
    <!-- Generator: sketchtool 54.1 (76490) - https://sketchapp.com -->
    <title>AF65BAF4-159C-48B4-ABFC-0594343B712F@1.00x</title>
    <desc>Created with sketchtool.</desc>
    <g id="No-Results" stroke="none" stroke-width="1" fill="none" fill-rule="evenodd">
        <g id="No-results" transform="translate(-388.000000, -368.000000)">
            <g id="Group-10" transform="translate(388.000000, 368.000000)">
                <g id="sad-octopus" transform="translate(84.500000, 91.500000) scale(-1, 1) translate(-84.500000, -91.500000) ">
                    <circle id="Oval" fill="#A8E2E4" cx="70.5" cy="70.5" r="70.5"></circle>
                    <path d="M168.873794,124.387872 C167.413445,117.706669 153.00654,114.259473 147.89933,111.624802 C147.714781,111.528265 146.792033,111.045577 145.492162,110.454284 C143.803132,109.677961 142.992718,109.476841 127.996057,102.357196 C122.72837,99.8552645 123.253935,100.084541 111.595214,94.4612283 C92.562534,85.2861376 86.4122179,82.3940332 86.7211379,78.9790169 C86.9578428,76.2357412 91.1142208,76.0989797 93.8945006,70.1860541 C94.9655901,67.834009 95.5614607,65.2925697 95.6477218,62.7084155 C96.1050839,55.6330167 93.2806726,50.3194285 92.3378649,48.6018644 C90.0671024,44.4547716 87.4553244,42.2786541 82.7814051,38.3729053 C78.9780786,35.199233 73.8147017,30.9636475 65.9312242,28.2042822 C63.1589683,27.2348842 59.568275,26.0160974 54.6977703,26.0000079 C52.0900042,26.0000079 48.3067374,25.9798959 44.1664072,27.9750055 C38.1524974,30.8510203 35.3922773,35.9956678 34.26492,38.1235166 C31.3682936,43.5175528 31.1676962,48.4530356 31.0353019,51.7594471 C30.8630179,55.7274738 31.3221174,59.6976912 32.3953523,63.52094 C34.0964181,69.3614624 39.4964999,82.2331372 47.6768616,83.5203047 C48.7761353,83.6932678 51.8091678,83.9547237 54.0959781,85.8814526 C54.5974716,86.2836924 56.6034455,87.6754422 56.3105733,89.5619471 C56.2423702,89.9963661 56.4229079,90.6439722 55.6887214,94.2882652 C55.4038731,95.7041494 55.1952518,96.6011443 55.0989651,97.0476305 C54.6229505,99.4507953 54.4090595,101.898742 54.4610654,104.348284 C54.4605281,107.262866 54.6737361,110.173544 55.0989651,113.056776 C55.3798014,115.281162 55.8251276,118.209468 56.5713499,121.632529 C53.9595719,126.024988 51.9174904,129.842244 50.3688786,132.834909 C49.9235524,133.699725 48.8363145,135.759192 47.5605151,138.466267 C46.2445962,141.30608 44.9447251,144.153938 43.7331168,147.037998 C42.9478457,148.883078 42.2634622,150.769699 41.6830115,152.689467 C40.5516422,156.390074 39.9297903,158.41334 39.9378142,160.967563 C39.9378142,163.381002 40.5355944,165.187059 41.8113938,168.81124 C43.1955158,172.745146 44.2185625,173.714544 44.3188612,176.622738 C44.4031121,178.682206 43.9938935,180.48424 44.3188612,180.564688 C44.643829,180.645136 45.2416092,179.164893 45.5224456,178.283988 C46.0716149,176.598627 46.2186491,174.807577 45.951724,173.05487 C45.9156165,172.797437 45.8795089,172.616429 45.8674731,172.531959 C45.3860394,169.692145 44.7802352,166.928758 45.0329879,163.96425 C45.2685066,161.293219 45.9549566,158.681722 47.0630336,156.241245 C47.9055426,154.35474 49.6868474,149.125622 53.5904727,142.392127 C54.7579495,140.380928 56.2102746,138.039892 58.0036153,135.485669 C57.9434361,136.169477 57.8511613,137.179099 57.7548745,138.405931 C57.5021218,141.535357 57.3777514,143.10007 57.3536798,144.294722 C57.3305101,146.597323 57.5905737,148.894006 58.1279857,151.132799 C58.793286,153.756424 59.842422,156.266812 61.2412572,158.582281 C63.1814181,161.92629 65.5798607,164.980896 68.3664766,167.656812 C70.7014302,169.9174 71.7284888,170.400087 72.8036909,171.490157 C73.2418768,171.936389 73.6443167,172.41654 74.0072752,172.926154 C74.8096648,174.020246 76.6511488,176.546312 76.7795312,179.868813 C76.8276745,181.131846 76.6070174,181.952416 76.867794,182.032863 C77.2248574,182.145491 78.0713784,180.737651 78.3722745,179.619424 C78.5390838,178.962939 78.6027029,178.284377 78.560836,177.608225 C78.560836,177.5318 78.560836,177.467441 78.560836,177.423195 C78.332155,175.371772 78.2198204,174.34606 77.794554,172.918109 C77.3416168,171.379116 76.7199837,169.895182 75.9410341,168.493471 C76.6912683,168.304418 77.3131202,168.091231 77.7664703,167.950447 C79.4199621,167.389047 81.0000081,166.630054 82.4724852,165.689859 C82.7252379,165.524941 82.9298472,165.384157 83.0662534,165.287619 C84.8687494,167.578546 86.8837312,169.693053 89.0841752,171.602784 C90.5585906,172.952035 92.152576,174.163765 93.8463573,175.222943 C94.8774279,175.874572 103.551259,181.103689 107.743745,177.885771 C109.890137,176.232565 110.275284,172.813526 109.749718,172.515869 C109.224153,172.218211 108.189071,175.194786 105.565257,176.063624 C101.448998,177.427217 96.3056813,172.644586 93.3408518,169.889243 C90.9314023,167.644271 88.8307511,165.087706 87.0942491,162.28691 C89.1060237,157.47407 90.6601914,152.481583 91.7360727,147.375879 C93.6096523,138.454199 94.5444362,126.600191 92.5986415,118.961657 C92.406068,118.205446 91.6117023,115.228871 90.8093128,111.065689 C90.3158432,108.503421 90.0069232,106.367528 89.79429,104.883263 C90.5685959,106.649095 91.7440966,109.307901 93.2044456,112.49364 C103.033718,134.041628 106.881176,138.84035 109.01152,141.281945 C111.737416,144.39447 114.777281,147.215792 118.082534,149.700825 C123.891154,154.060625 130.488359,157.248974 137.508386,159.089103 C139.632781,159.634209 141.81498,159.920524 144.007741,159.941852 C147.413885,159.974031 152.460915,159.941852 154.214136,156.768179 C155.305386,154.797204 155.172992,151.575263 153.219173,150.006528 C150.787933,148.051642 146.824128,149.69278 146.832152,150.187535 C146.840176,150.68229 150.394762,150.187535 151.578287,152.198735 C152.156007,153.176177 152.22421,154.833406 151.417809,155.794759 C148.589385,159.173573 135.538519,153.192267 129.781374,149.065286 L129.111379,148.578576 C126.005759,146.249678 123.178682,143.569106 120.686288,140.590093 C114.945191,133.796262 112.345449,127.283999 109.789838,120.735535 C107.844193,115.738113 106.293477,110.595047 105.152026,105.353883 C114.045285,110.187287 123.495596,113.910256 133.291828,116.439613 C149.933388,120.687266 165.263041,120.767714 166.659199,126.946118 C167.252967,129.600901 165.106575,132.577475 165.387411,132.678035 C165.732439,132.834909 169.756422,128.438427 168.873794,124.387872 Z M63.5721989,104.199455 C63.8908269,101.514013 64.6770589,98.905473 65.8951167,96.4925395 C66.4185091,97.69461 66.7696894,98.9648608 66.9382231,100.265549 C67.3955852,103.833417 66.3203832,106.701387 65.6062564,108.559735 C65.1523056,109.724727 64.5992951,110.848432 63.9533339,111.918437 C63.3949346,109.385147 63.2660874,106.775654 63.5721989,104.199455 L63.5721989,104.199455 Z M76.8116268,164.696326 C76.1153723,165.117431 75.3571262,165.425592 74.564936,165.609411 C74.252004,165.331865 73.8106898,164.929626 73.3011724,164.402691 C70.4059333,161.48813 68.0467914,158.08386 66.332419,154.346695 C63.6644737,148.244717 63.9934534,142.657606 64.2702778,137.91922 C64.5674739,132.987032 65.596484,128.126835 67.3233701,123.498922 C67.7446246,127.521321 68.3263571,130.956449 68.8639581,133.635366 C69.4015591,136.314283 70.0354469,138.727723 70.9020276,141.933574 C72.0173491,146.048488 73.5860207,148.924502 74.6491869,151.144866 C76.2450721,154.467441 78.0542471,157.682725 80.0653164,160.770466 C79.4243671,162.392467 78.284701,163.767574 76.8116268,164.696326 L76.8116268,164.696326 Z M85.9588678,136.768814 C85.599277,142.097809 84.8293643,147.390963 83.6560098,152.600975 C83.3350539,154.040993 83.0461937,155.215533 82.8536202,155.979789 C82.1852457,155.068414 81.5832323,154.109943 81.0522556,153.111819 C79.1947238,149.620377 78.3000594,145.791054 77.8025779,134.017494 C77.6741955,130.988628 77.5979685,129.476206 77.5979685,127.263887 C77.5965879,120.307398 78.017282,113.357266 78.8577202,106.451998 C80.3780707,109.629317 81.7083794,112.894578 82.8415844,116.230448 C84.0692404,119.850607 84.6910923,122.360583 84.867618,123.10875 C85.3992722,125.15679 85.7840647,127.240351 86.019047,129.343467 C86.2597639,131.925847 86.1514413,133.764083 85.9588678,136.768814 L85.9588678,136.768814 Z M83.6118783,71.1232729 C78.3401789,74.5905803 69.6141923,70.5963387 64.1258477,62.2015933 C58.6375031,53.8068479 58.4609774,44.1933157 63.7246529,40.7260083 C68.9883285,37.2587009 77.7343748,41.2569649 83.2106836,49.6517103 C88.6869923,58.0464558 88.8875897,67.6720551 83.6118783,71.1232729 Z" id="Shape" fill="#376184" fill-rule="nonzero"></path>
                    <path d="M83.6118783,71.1232729 C78.3401789,74.5905803 69.6141923,70.5963387 64.1258477,62.2015933 C58.6375031,53.8068479 58.4609774,44.1933157 63.7246529,40.7260083 C68.9883285,37.2587009 77.7343748,41.2569649 83.2106836,49.6517103 C88.6869923,58.0464558 88.8875897,67.6720551 83.6118783,71.1232729 Z" id="Path" fill="#FBFBFB" fill-rule="nonzero"></path>
                    <ellipse id="Oval" fill="#376184" fill-rule="nonzero" transform="translate(76.034346, 55.126856) rotate(-33.250000) translate(-76.034346, -55.126856) " cx="76.0343458" cy="55.1268563" rx="6.6616625" ry="10.5848584"></ellipse>
                    <ellipse id="Oval" fill="#FBFBFB" fill-rule="nonzero" transform="translate(74.251282, 50.757845) rotate(-33.250000) translate(-74.251282, -50.757845) " cx="74.2512821" cy="50.7578453" rx="2" ry="3.5"></ellipse>
                    <path d="M52.9609523,77.4892751 C57.4330785,74.2203804 62.7565044,72.0391564 64.9293564,72.6323242 C67.7965439,73.4150391 67.7965439,75.8675275 67.7965439,79.9423828 C67.7965439,84.2416347 68.3141891,74.157287 64.0458083,74.187029 C58.4910141,74.2257347 48.4440101,80.7909281 52.9609523,77.4892751 Z" id="Path-2" stroke="#FF905D" stroke-width="0.5" fill="#FC9668" stroke-linecap="round" stroke-linejoin="bevel" transform="translate(59.820879, 76.772174) scale(-1, 1) translate(-59.820879, -76.772174) "></path>
                </g>
            </g>
        </g>
    </g>
</svg>